name Walk8.mot
datacolumns 19
datarows 20
range 1.84500000 1.94000000
endheader

                time	   L_ground_force_vx	   L_ground_force_vy	   L_ground_force_vz	   L_ground_force_px	   L_ground_force_py	   L_ground_force_pz	   R_ground_force_vx	   R_ground_force_vy	   R_ground_force_vz	   R_ground_force_px	   R_ground_force_py	   R_ground_force_pz	   L_ground_torque_x	   L_ground_torque_y	   L_ground_torque_z	   R_ground_torque_x	   R_ground_torque_y	   R_ground_torque_z	
          1.84500000	          0.00036005	          0.00022084	         -0.00127669	         -0.00009963	          0.00000000	         -0.00003820	        -28.35696084	        535.87937068	        -41.80101279	          0.26799524	          0.00000000	          0.09281759	          0.00000000	          0.00007189	          0.00000000	          0.00000000	         -0.45329019	          0.00000000	
          1.85000000	         -0.00203487	         -0.00684523	         -0.00106386	         -0.00006519	          0.00000000	         -0.00002529	        -26.28459455	        528.25104927	        -41.55675392	          0.27051446	          0.00000000	          0.09345370	          0.00000000	          0.00004379	          0.00000000	          0.00000000	         -0.51105913	          0.00000000	
          1.85500000	         -0.00340974	         -0.01083519	         -0.00084325	         -0.00003795	          0.00000000	         -0.00001502	        -24.31019676	        521.25897295	        -41.25134024	          0.27297820	          0.00000000	          0.09405290	          0.00000000	          0.00002230	          0.00000000	          0.00000000	         -0.55463684	          0.00000000	
          1.86000000	         -0.00402176	         -0.01253694	         -0.00063508	         -0.00001749	          0.00000000	         -0.00000724	        -22.41388424	        514.93253285	        -40.88598197	          0.27537005	          0.00000000	          0.09461101	          0.00000000	          0.00000676	          0.00000000	          0.00000000	         -0.58480705	          0.00000000	
          1.86500000	         -0.00409616	         -0.01263672	         -0.00045136	         -0.00000298	          0.00000000	         -0.00000168	        -20.57414951	        509.29048573	        -40.47051067	          0.27767233	          0.00000000	          0.09512437	          0.00000000	         -0.00000374	          0.00000000	          0.00000000	         -0.60274064	          0.00000000	
          1.87000000	         -0.00381991	         -0.01170129	         -0.00029784	          0.00000656	          0.00000000	          0.00000201	        -18.76975805	        504.34361277	        -40.02204195	          0.27986790	          0.00000000	          0.09558982	          0.00000000	         -0.00001018	          0.00000000	          0.00000000	         -0.60974167	          0.00000000	
          1.87500000	         -0.00334065	         -0.01017599	         -0.00017584	          0.00001216	          0.00000000	          0.00000423	        -16.98155677	        500.10214186	        -39.56206333	          0.28194464	          0.00000000	          0.09600731	          0.00000000	         -0.00001350	          0.00000000	          0.00000000	         -0.60723667	          0.00000000	
          1.88000000	         -0.00276911	         -0.00839305	         -0.00008370	          0.00001479	          0.00000000	          0.00000531	        -15.19409833	        496.57833028	        -39.11432688	          0.28389687	          0.00000000	          0.09638046	          0.00000000	         -0.00001457	          0.00000000	          0.00000000	         -0.59691555	          0.00000000	
          1.88500000	         -0.00218358	         -0.00658589	         -0.00001799	          0.00001531	          0.00000000	          0.00000559	        -13.39755190	        493.78393735	        -38.70324394	          0.28572181	          0.00000000	          0.09671433	          0.00000000	         -0.00001410	          0.00000000	          0.00000000	         -0.58042012	          0.00000000	
          1.89000000	         -0.00163540	         -0.00490613	          0.00002557	          0.00001443	          0.00000000	          0.00000532	        -11.58812776	        491.72736070	        -38.35208294	          0.28741830	          0.00000000	          0.09701365	          0.00000000	         -0.00001268	          0.00000000	          0.00000000	         -0.55912896	          0.00000000	
          1.89500000	         -0.00115453	         -0.00344092	          0.00005149	          0.00001272	          0.00000000	          0.00000473	         -9.76736230	        490.41161228	        -38.08102582	          0.28898897	          0.00000000	          0.09728298	          0.00000000	         -0.00001077	          0.00000000	          0.00000000	         -0.53417077	          0.00000000	
          1.90000000	         -0.00075484	         -0.00222917	          0.00006403	          0.00001062	          0.00000000	          0.00000398	         -7.94155804	        489.83264567	        -37.90546423	          0.29043846	          0.00000000	          0.09752592	          0.00000000	         -0.00000869	          0.00000000	          0.00000000	         -0.50661971	          0.00000000	
          1.90500000	         -0.00043883	         -0.00127580	          0.00006701	          0.00000844	          0.00000000	          0.00000318	         -6.12027171	        489.97931176	        -37.83544311	          0.29177417	          0.00000000	          0.09774614	          0.00000000	         -0.00000667	          0.00000000	          0.00000000	         -0.47719772	          0.00000000	
          1.91000000	         -0.00020147	         -0.00056352	          0.00006362	          0.00000637	          0.00000000	          0.00000242	         -4.31409871	        490.83337903	        -37.87489492	          0.29300676	          0.00000000	          0.09794743	          0.00000000	         -0.00000485	          0.00000000	          0.00000000	         -0.44627678	          0.00000000	
          1.91500000	         -0.00003333	         -0.00006219	          0.00005642	          0.00000454	          0.00000000	          0.00000174	         -2.53308092	        492.36937707	        -38.02052553	          0.29414953	          0.00000000	          0.09813435	          0.00000000	         -0.00000330	          0.00000000	          0.00000000	         -0.41402908	          0.00000000	
          1.92000000	          0.00007714	          0.00026423	          0.00004734	          0.00000300	          0.00000000	          0.00000116	         -0.78580550	        494.55508910	        -38.26193399	          0.29521656	          0.00000000	          0.09831120	          0.00000000	         -0.00000204	          0.00000000	          0.00000000	         -0.38055676	          0.00000000	
          1.92500000	          0.00014188	          0.00045266	          0.00003777	          0.00000178	          0.00000000	          0.00000070	          0.92160167	        497.35261314	        -38.58287489	          0.29622055	          0.00000000	          0.09847956	          0.00000000	         -0.00000107	          0.00000000	          0.00000000	         -0.34574225	          0.00000000	
          1.93000000	          0.00017217	          0.00053769	          0.00002865	          0.00000086	          0.00000000	          0.00000035	          2.58595977	        500.71921950	        -38.96387111	          0.29717235	          0.00000000	          0.09863877	          0.00000000	         -0.00000037	          0.00000000	          0.00000000	         -0.30924605	          0.00000000	
          1.93500000	          0.00017798	          0.00054970	          0.00002053	          0.00000020	          0.00000000	          0.00000010	          4.20693928	        504.61074485	        -39.38401670	          0.29807978	          0.00000000	          0.09878764	          0.00000000	          0.00000011	          0.00000000	          0.00000000	         -0.27076750	          0.00000000	
          1.94000000	          0.00016763	          0.00051392	          0.00001370	         -0.00000024	          0.00000000	         -0.00000007	          5.78721434	        508.98408071	        -39.82245639	          0.29894851	          0.00000000	          0.09892372	          0.00000000	          0.00000041	          0.00000000	          0.00000000	         -0.23011639	          0.00000000	
